<?xml version="1.0" encoding="utf-8"?>
<svg fill="#0000FF" width="800px" height="800px"
     viewBox="0 0 50 50" xmlns="http://www.w3.org/2000/svg">

  <!-- Circle background -->
  <circle cx="25" cy="25" r="25" fill="white"/>

  <!-- Your shapes clipped inside the circle -->
  <g clip-path="url(#clipCircle)">
    <clipPath id="clipCircle">
      <circle cx="25" cy="25" r="25"/>
    </clipPath>

    <path d="M15 30c-2.8 0-5-2.2-5-5s2.2-5 5-5 5 2.2 5 5-2.2 5-5 5zm0-8c-1.7 0-3 1.3-3 3s1.3 3 3 3 3-1.3 3-3-1.3-3-3-3z"/>
    <path d="M35 20c-2.8 0-5-2.2-5-5s2.2-5 5-5 5 2.2 5 5-2.2 5-5 5zm0-8c-1.7 0-3 1.3-3 3s1.3 3 3 3 3-1.3 3-3-1.3-3-3-3z"/>
    <path d="M35 40c-2.8 0-5-2.2-5-5s2.2-5 5-5 5 2.2 5 5-2.2 5-5 5zm0-8c-1.7 0-3 1.3-3 3s1.3 3 3 3 3-1.3 3-3-1.3-3-3-3z"/>
    <path d="M19.007 25.885l12.88 6.44-.895 1.788-12.88-6.44z"/>
    <path d="M30.993 15.885l.894 1.79-12.88 6.438-.894-1.79z"/>

  </g>
</svg>
